<?xml version="1.0" encoding="UTF-8"?>
<svg version="1.1" xmlns="http://www.w3.org/2000/svg" width="100" height="100">
<path d="M0 0 C1.32336276 0.75203145 2.63568596 1.52375385 3.9375 2.3125 C4.67742187 2.72113281 5.41734375 3.12976563 6.1796875 3.55078125 C11.74966114 6.75202944 11.74966114 6.75202944 12.66015625 9.46875 C12.79744141 10.38140625 12.79744141 10.38140625 12.9375 11.3125 C14.5875 11.3125 16.2375 11.3125 17.9375 11.3125 C18.4325 12.3025 18.4325 12.3025 18.9375 13.3125 C20.58571244 14.34263277 22.25253702 15.34364628 23.9375 16.3125 C24.2675 16.6425 24.5975 16.9725 24.9375 17.3125 C24.3375 23.9125 24.3375 23.9125 21.9375 26.3125 C22.4325 27.3025 22.4325 27.3025 22.9375 28.3125 C22.93174381 30.39624201 22.88381949 32.47997091 22.8125 34.5625 C22.74075422 41.40738558 22.74075422 41.40738558 25.9375 47.3125 C28.52164426 48.28156827 28.52164426 48.28156827 30.9375 48.3125 C30.9375 48.6425 30.9375 48.9725 30.9375 49.3125 C28.9575 49.3125 26.9775 49.3125 24.9375 49.3125 C24.8446875 50.6428125 24.8446875 50.6428125 24.75 52 C23.70280668 56.26932663 22.48636586 57.72478531 18.9375 60.3125 C16.62120754 60.72538636 14.36756659 60.8754068 12.01953125 61.00390625 C9.01419703 61.44934978 7.80281304 63.0167301 5.9375 65.3125 C3.29309361 66.1939688 1.65689248 66.47424818 -1.0625 66.5 C-1.743125 66.51417969 -2.42375 66.52835937 -3.125 66.54296875 C-5.0625 66.3125 -5.0625 66.3125 -8.0625 64.3125 C-11.47251856 64.6425018 -13.41188789 66.2604132 -16.0625 68.3125 C-19.25406448 69.37635483 -21.64747476 69.47927982 -25 69.5 C-26.56041016 69.52126953 -26.56041016 69.52126953 -28.15234375 69.54296875 C-31.0625 69.3125 -31.0625 69.3125 -32.89453125 68.33984375 C-36.3736777 66.69116714 -40.0074253 66.83894576 -43.8125 66.6875 C-44.60527344 66.64882812 -45.39804687 66.61015625 -46.21484375 66.5703125 C-48.16369416 66.476392 -50.11306451 66.39337178 -52.0625 66.3125 C-54.1875 61.6875 -54.1875 61.6875 -53.0625 58.3125 C-50.40166031 56.31853743 -47.45007675 54.3125 -44.0625 54.3125 C-44.3925 52.6625 -44.7225 51.0125 -45.0625 49.3125 C-46.114375 49.250625 -47.16625 49.18875 -48.25 49.125 C-52.85009369 48.14465217 -54.31953599 47.10424437 -57.0625 43.3125 C-58.50717955 38.43670652 -57.88793518 34.26511109 -57.0625 29.3125 C-57.7225 28.6525 -58.3825 27.9925 -59.0625 27.3125 C-56.7525 27.3125 -54.4425 27.3125 -52.0625 27.3125 C-52.0625 26.6525 -52.0625 25.9925 -52.0625 25.3125 C-50.7425 25.3125 -49.4225 25.3125 -48.0625 25.3125 C-47.85625 24.425625 -47.65 23.53875 -47.4375 22.625 C-45.51952755 18.00443001 -42.58420013 15.57335006 -38.0625 13.3125 C-36.64583333 13.3125 -35.22916667 13.3125 -33.8125 13.3125 C-30.67786903 13.01706353 -29.48035956 12.79158085 -27.3828125 10.38671875 C-26.41264686 8.78463442 -25.46355794 7.16961127 -24.53515625 5.54296875 C-19.4305506 -2.1884101 -7.9780713 -3.91020096 0 0 Z " fill="#C7EBE4" transform="translate(66.0625,14.6875)"/>
<path d="M0 0 C2.8125 -0.3125 2.8125 -0.3125 6 0 C7.625 2.4375 7.625 2.4375 9 5 C11.08533633 5.87822312 11.08533633 5.87822312 13 6 C13 6.66 13 7.32 13 8 C13.804375 8.144375 14.60875 8.28875 15.4375 8.4375 C18 9 18 9 19 10 C19.1875 12.4375 19.1875 12.4375 19 15 C17 17 17 17 13.7421875 17.1953125 C12.46601562 17.17210938 11.18984375 17.14890625 9.875 17.125 C7.95300781 17.09792969 7.95300781 17.09792969 5.9921875 17.0703125 C4.51105469 17.03550781 4.51105469 17.03550781 3 17 C2.98541748 17.89307861 2.97083496 18.78615723 2.95581055 19.70629883 C2.89472923 23.02217278 2.82057522 26.33721899 2.73754883 29.65258789 C2.70430999 31.08704628 2.67627465 32.52163513 2.65356445 33.95629883 C2.61999729 36.01960807 2.56768587 38.08172303 2.51171875 40.14453125 C2.48553467 41.38565674 2.45935059 42.62678223 2.43237305 43.90551758 C2 47 2 47 0.89648438 48.91015625 C-2.01727407 50.5845921 -4.52034762 50.33518547 -7.85546875 50.29296875 C-8.51710526 50.28872391 -9.17874176 50.28447906 -9.86042786 50.28010559 C-11.9698691 50.26333693 -14.07834846 50.22569099 -16.1875 50.1875 C-17.61912681 50.17245068 -19.05076862 50.1587627 -20.48242188 50.14648438 C-23.98859288 50.1134403 -27.49420254 50.06167167 -31 50 C-31 49.34 -31 48.68 -31 48 C-31.63808594 47.79503906 -32.27617188 47.59007812 -32.93359375 47.37890625 C-33.75988281 47.10949219 -34.58617187 46.84007812 -35.4375 46.5625 C-36.26121094 46.29566406 -37.08492187 46.02882812 -37.93359375 45.75390625 C-40 45 -40 45 -41 44 C-41.28230229 39.38136347 -41.23184011 34.7512329 -41.25 30.125 C-41.270625 28.81917969 -41.29125 27.51335938 -41.3125 26.16796875 C-41.31765625 24.91886719 -41.3228125 23.66976562 -41.328125 22.3828125 C-41.3374707 21.23184082 -41.34681641 20.08086914 -41.35644531 18.89501953 C-41 16 -41 16 -39.81225586 14.13305664 C-37.36330847 12.60192841 -35.55560043 12.56783427 -32.67578125 12.48828125 C-31.13374023 12.43510742 -31.13374023 12.43510742 -29.56054688 12.38085938 C-28.48869141 12.35830078 -27.41683594 12.33574219 -26.3125 12.3125 C-24.68731445 12.26125977 -24.68731445 12.26125977 -23.02929688 12.20898438 C-20.3529678 12.1264544 -17.67696841 12.05732063 -15 12 C-14.67 11.01 -14.34 10.02 -14 9 C-13.01 8.67 -12.02 8.34 -11 8 C-11 6.68 -11 5.36 -11 4 C-4.25 2.875 -4.25 2.875 -2 4 C-1.34 2.68 -0.68 1.36 0 0 Z " fill="#EDE9E0" transform="translate(70,22)"/>
<path d="M0 0 C2.29109597 -0.08075665 4.58299267 -0.13907731 6.875 -0.1875 C8.78925781 -0.23970703 8.78925781 -0.23970703 10.7421875 -0.29296875 C11.81726563 -0.19628906 12.89234375 -0.09960938 14 0 C16.40520808 3.60781213 16.12881731 5.05936895 15.9375 9.3125 C15.81408813 16.12308764 15.81408813 16.12308764 19 22 C21.58414426 22.96906827 21.58414426 22.96906827 24 23 C24 23.33 24 23.66 24 24 C22.02 24 20.04 24 18 24 C17.9071875 25.3303125 17.9071875 25.3303125 17.8125 26.6875 C16.76530668 30.95682663 15.54886586 32.41228531 12 35 C9.68370754 35.41288636 7.43006659 35.5629068 5.08203125 35.69140625 C2.07669703 36.13684978 0.86531304 37.7042301 -1 40 C-3.64440639 40.8814688 -5.28060752 41.16174818 -8 41.1875 C-9.0209375 41.20876953 -9.0209375 41.20876953 -10.0625 41.23046875 C-12 41 -12 41 -15 39 C-18.41001856 39.3300018 -20.34938789 40.9479132 -23 43 C-26.19156448 44.06385483 -28.58497476 44.16677982 -31.9375 44.1875 C-33.49791016 44.20876953 -33.49791016 44.20876953 -35.08984375 44.23046875 C-37.95046613 44.00392282 -39.57670151 43.47733619 -42 42 C-42 41.34 -42 40.68 -42 40 C-43.05960938 40.02320313 -44.11921875 40.04640625 -45.2109375 40.0703125 C-46.5989513 40.08906944 -47.9869727 40.10726972 -49.375 40.125 C-50.07367188 40.14175781 -50.77234375 40.15851563 -51.4921875 40.17578125 C-53.32897486 40.19344267 -55.16601963 40.10303261 -57 40 C-57.66 39.34 -58.32 38.68 -59 38 C-58.625 35.875 -58.625 35.875 -58 34 C-56.02 33.505 -56.02 33.505 -54 33 C-54 32.34 -54 31.68 -54 31 C-53.01 31 -52.02 31 -51 31 C-49.29467677 29.05990478 -49.29467677 29.05990478 -48 27 C-43.25 27.75 -43.25 27.75 -41 30 C-38.89179203 29.6814823 -38.89179203 29.6814823 -37 29 C-33.38860104 32.87564767 -33.38860104 32.87564767 -32 35 C-32.1875 37.375 -32.1875 37.375 -33 39 C-32.67 39 -32.34 39 -32 39 C-32 37.02 -32 35.04 -32 33 C-22.1 32.67 -12.2 32.34 -2 32 C-0.55037817 29.10075634 -0.77873519 26.47699645 -0.68359375 23.2421875 C-0.66281265 22.57913605 -0.64203156 21.91608459 -0.62062073 21.23294067 C-0.55520769 19.11373306 -0.49627895 16.994401 -0.4375 14.875 C-0.39430691 13.43878919 -0.35069236 12.00259098 -0.30664062 10.56640625 C-0.19953501 7.04440406 -0.09824425 3.52226175 0 0 Z " fill="#C8ECE5" transform="translate(73,40)"/>
<path d="M0 0 C2.77226064 0.58363382 3.75265012 1.19455543 5.375 3.5 C5.375 4.49 5.375 5.48 5.375 6.5 C7.025 6.5 8.675 6.5 10.375 6.5 C10.87 7.49 10.87 7.49 11.375 8.5 C13.02321244 9.53013277 14.69003702 10.53114628 16.375 11.5 C16.87 11.995 16.87 11.995 17.375 12.5 C16.655 19.22 16.655 19.22 15.375 20.5 C12.67845146 20.57319621 10.00808542 20.59242537 7.3125 20.5625 C6.55388672 20.55798828 5.79527344 20.55347656 5.01367188 20.54882812 C3.13408129 20.5370068 1.25453101 20.51907078 -0.625 20.5 C-0.60928955 21.83961792 -0.60928955 21.83961792 -0.59326172 23.20629883 C-0.55916408 26.52175477 -0.53409363 29.83702421 -0.51513672 33.15258789 C-0.505083 34.58718812 -0.49143806 36.02176789 -0.47412109 37.45629883 C-0.44984451 39.51909438 -0.43851081 41.58161885 -0.4296875 43.64453125 C-0.41397705 45.50621948 -0.41397705 45.50621948 -0.39794922 47.40551758 C-0.625 50.5 -0.625 50.5 -2.625 53.5 C-5.51416016 53.93237305 -5.51416016 53.93237305 -9.1640625 54.01171875 C-10.46601562 54.04716797 -11.76796875 54.08261719 -13.109375 54.11914062 C-14.48957809 54.14224231 -15.86978657 54.16502464 -17.25 54.1875 C-18.63805352 54.22066445 -20.02607607 54.2551533 -21.4140625 54.29101562 C-24.81762707 54.37374115 -28.2209259 54.44281257 -31.625 54.5 C-31.58375 55.28375 -31.5425 56.0675 -31.5 56.875 C-31.625 59.5 -31.625 59.5 -33.625 61.5 C-36.75 61.625 -36.75 61.625 -39.625 61.5 C-39.625 61.17 -39.625 60.84 -39.625 60.5 C-37.645 59.84 -35.665 59.18 -33.625 58.5 C-34.22427826 55.14404172 -35.47122436 53.12198774 -37.625 50.5 C-40.1 50.995 -40.1 50.995 -42.625 51.5 C-43.285 50.51 -43.945 49.52 -44.625 48.5 C-47.06217258 48.77034634 -47.06217258 48.77034634 -49.625 49.5 C-50.285 50.49 -50.945 51.48 -51.625 52.5 C-52.615 52.17 -53.605 51.84 -54.625 51.5 C-54.625 52.16 -54.625 52.82 -54.625 53.5 C-55.945 54.16 -57.265 54.82 -58.625 55.5 C-58.295 56.82 -57.965 58.14 -57.625 59.5 C-52.675 59.83 -47.725 60.16 -42.625 60.5 C-42.625 60.83 -42.625 61.16 -42.625 61.5 C-48.235 61.5 -53.845 61.5 -59.625 61.5 C-61.625 56.5 -61.625 56.5 -60.625 53.5 C-58.515625 51.9296875 -58.515625 51.9296875 -55.875 50.375 C-55.01390625 49.85679688 -54.1528125 49.33859375 -53.265625 48.8046875 C-50.66106625 47.51781972 -48.46416936 47.0088181 -45.625 46.5 C-45.63547363 45.60168457 -45.64594727 44.70336914 -45.65673828 43.77783203 C-45.6907947 40.44935553 -45.71588618 37.12106378 -45.73486328 33.79248047 C-45.74492963 32.35104453 -45.7585838 30.90962905 -45.77587891 29.46826172 C-45.80010012 27.39806066 -45.81147641 25.32812924 -45.8203125 23.2578125 C-45.83078613 22.0114502 -45.84125977 20.76508789 -45.85205078 19.48095703 C-45.625 16.5 -45.625 16.5 -43.625 14.5 C-41.19482422 14.27294922 -41.19482422 14.27294922 -38.1796875 14.3046875 C-36.56513672 14.31435547 -36.56513672 14.31435547 -34.91796875 14.32421875 C-33.79003906 14.34097656 -32.66210938 14.35773437 -31.5 14.375 C-29.79650391 14.38853516 -29.79650391 14.38853516 -28.05859375 14.40234375 C-25.24718701 14.42596902 -22.43619702 14.45890987 -19.625 14.5 C-19.295 13.18 -18.965 11.86 -18.625 10.5 C-17.965 10.5 -17.305 10.5 -16.625 10.5 C-16.295 9.18 -15.965 7.86 -15.625 6.5 C-15.50125 7.139375 -15.3775 7.77875 -15.25 8.4375 C-15.04375 9.118125 -14.8375 9.79875 -14.625 10.5 C-13.965 10.83 -13.305 11.16 -12.625 11.5 C-13.429375 11.62375 -14.23375 11.7475 -15.0625 11.875 C-15.908125 12.08125 -16.75375 12.2875 -17.625 12.5 C-17.955 13.16 -18.285 13.82 -18.625 14.5 C-14.005 14.5 -9.385 14.5 -4.625 14.5 C-4.625 14.83 -4.625 15.16 -4.625 15.5 C-17.495 15.83 -30.365 16.16 -43.625 16.5 C-43.625 26.4 -43.625 36.3 -43.625 46.5 C-38.25698544 48.03371845 -34.03281799 48.930756 -28.625 49.5 C-28.625 49.83 -28.625 50.16 -28.625 50.5 C-30.605 50.5 -32.585 50.5 -34.625 50.5 C-34.625 51.16 -34.625 51.82 -34.625 52.5 C-24.065 52.17 -13.505 51.84 -2.625 51.5 C-2.295 40.61 -1.965 29.72 -1.625 18.5 C3.325 18.5 8.275 18.5 13.375 18.5 C14.67133621 17.43354885 14.67133621 17.43354885 14.4375 14.9375 C14.416875 14.133125 14.39625 13.32875 14.375 12.5 C13.570625 12.21125 12.76625 11.9225 11.9375 11.625 C9.375 10.5 9.375 10.5 8.375 8.5 C7.055 8.5 5.735 8.5 4.375 8.5 C3.385 6.025 3.385 6.025 2.375 3.5 C-0.54134129 3.2497843 -0.54134129 3.2497843 -3.625 3.5 C-4.285 4.49 -4.945 5.48 -5.625 6.5 C-6.285 6.17 -6.945 5.84 -7.625 5.5 C-3.375 0.64285714 -3.375 0.64285714 0 0 Z " fill="#5D4642" transform="translate(73.625,19.5)"/>
<path d="M0 0 C2.8125 -0.3125 2.8125 -0.3125 6 0 C7.625 2.4375 7.625 2.4375 9 5 C11.08533633 5.87822312 11.08533633 5.87822312 13 6 C13 6.66 13 7.32 13 8 C13.804375 8.144375 14.60875 8.28875 15.4375 8.4375 C18 9 18 9 19 10 C19.1875 12.4375 19.1875 12.4375 19 15 C17 17 17 17 13.7421875 17.1953125 C12.46601562 17.17210938 11.18984375 17.14890625 9.875 17.125 C7.95300781 17.09792969 7.95300781 17.09792969 5.9921875 17.0703125 C5.00476563 17.04710938 4.01734375 17.02390625 3 17 C2.75636719 16.03320312 2.75636719 16.03320312 2.5078125 15.046875 C1.04785597 12.5663746 1.04785597 12.5663746 -2.6953125 12.390625 C-4.17112237 12.32414708 -5.64796017 12.27806121 -7.125 12.25 C-7.87910156 12.22035156 -8.63320313 12.19070312 -9.41015625 12.16015625 C-11.27285953 12.08942068 -13.13643755 12.04245017 -15 12 C-14.67 11.01 -14.34 10.02 -14 9 C-13.01 8.67 -12.02 8.34 -11 8 C-11 6.68 -11 5.36 -11 4 C-4.25 2.875 -4.25 2.875 -2 4 C-1.34 2.68 -0.68 1.36 0 0 Z " fill="#F4F2E5" transform="translate(70,22)"/>
<path d="M0 0 C4.75 0.75 4.75 0.75 7 3 C9.10820797 2.6814823 9.10820797 2.6814823 11 2 C14.5822015 5.8443138 14.5822015 5.8443138 16 8 C15.8726702 10.35560128 15.65621618 11.34378382 14 13 C10.19411856 13.25208722 6.37574544 13.18522344 2.5625 13.1875 C0.94891602 13.20586914 0.94891602 13.20586914 -0.69726562 13.22460938 C-1.72400391 13.22654297 -2.75074219 13.22847656 -3.80859375 13.23046875 C-5.22869751 13.23663208 -5.22869751 13.23663208 -6.67749023 13.24291992 C-9 13 -9 13 -11 11 C-10.625 8.875 -10.625 8.875 -10 7 C-8.68 6.67 -7.36 6.34 -6 6 C-6 5.34 -6 4.68 -6 4 C-5.01 4 -4.02 4 -3 4 C-1.29467677 2.05990478 -1.29467677 2.05990478 0 0 Z " fill="#F5F3E7" transform="translate(25,67)"/>
<path d="M0 0 C2.77226064 0.58363382 3.75265012 1.19455543 5.375 3.5 C5.375 4.49 5.375 5.48 5.375 6.5 C7.025 6.5 8.675 6.5 10.375 6.5 C10.705 7.16 11.035 7.82 11.375 8.5 C13.02321244 9.53013277 14.69003702 10.53114628 16.375 11.5 C16.705 11.83 17.035 12.16 17.375 12.5 C16.655 19.22 16.655 19.22 15.375 20.5 C12.67845146 20.57319621 10.00808542 20.59242537 7.3125 20.5625 C6.55388672 20.55798828 5.79527344 20.55347656 5.01367188 20.54882812 C3.13408129 20.5370068 1.25453101 20.51907078 -0.625 20.5 C-0.61452637 21.39307861 -0.60405273 22.28615723 -0.59326172 23.20629883 C-0.55916408 26.52175477 -0.53409363 29.83702421 -0.51513672 33.15258789 C-0.505083 34.58718812 -0.49143806 36.02176789 -0.47412109 37.45629883 C-0.44984451 39.51909438 -0.43851081 41.58161885 -0.4296875 43.64453125 C-0.41921387 44.88565674 -0.40874023 46.12678223 -0.39794922 47.40551758 C-0.625 50.5 -0.625 50.5 -2.625 53.5 C-3.285 53.5 -3.945 53.5 -4.625 53.5 C-4.625 52.84 -4.625 52.18 -4.625 51.5 C-3.965 51.5 -3.305 51.5 -2.625 51.5 C-2.295 40.61 -1.965 29.72 -1.625 18.5 C3.325 18.5 8.275 18.5 13.375 18.5 C14.67133621 17.43354885 14.67133621 17.43354885 14.4375 14.9375 C14.416875 14.133125 14.39625 13.32875 14.375 12.5 C13.570625 12.21125 12.76625 11.9225 11.9375 11.625 C9.375 10.5 9.375 10.5 8.375 8.5 C7.055 8.5 5.735 8.5 4.375 8.5 C3.715 6.85 3.055 5.2 2.375 3.5 C-0.54134129 3.2497843 -0.54134129 3.2497843 -3.625 3.5 C-4.615 4.985 -4.615 4.985 -5.625 6.5 C-6.285 6.17 -6.945 5.84 -7.625 5.5 C-3.375 0.64285714 -3.375 0.64285714 0 0 Z " fill="#553E3A" transform="translate(73.625,19.5)"/>
<path d="M0 0 C1.19583104 3.58749311 1.01782444 6.292557 0.87890625 10.07421875 C0.84348976 11.09996758 0.84348976 11.09996758 0.80735779 12.1464386 C0.7308855 14.32701226 0.64679119 16.50721595 0.5625 18.6875 C0.50926281 20.1672997 0.45652252 21.64711738 0.40429688 23.12695312 C0.27529303 26.75152817 0.13945273 30.37581023 0 34 C-0.33 34 -0.66 34 -1 34 C-1 23.77 -1 13.54 -1 3 C-2.98 3 -4.96 3 -7 3 C-7 2.67 -7 2.34 -7 2 C-17.89 1.67 -28.78 1.34 -40 1 C-40 0.67 -40 0.34 -40 0 C-34.78575406 -0.16763742 -29.57135652 -0.32819469 -24.35668945 -0.48217773 C-22.58254115 -0.53556608 -20.80845009 -0.59089298 -19.03442383 -0.64819336 C-16.48531435 -0.73019269 -13.93608072 -0.80523144 -11.38671875 -0.87890625 C-10.19594978 -0.91945885 -10.19594978 -0.91945885 -8.98112488 -0.96083069 C-5.69363284 -1.05004432 -3.14650219 -1.04883406 0 0 Z " fill="#ADA099" transform="translate(72,35)"/>
<path d="M0 0 C6.35051546 -0.36637589 6.35051546 -0.36637589 9.4375 1.375 C11 3 11 3 11 5 C8.69 5 6.38 5 4 5 C4 5.66 4 6.32 4 7 C2.68 7 1.36 7 0 7 C0 6.34 0 5.68 0 5 C-1.175625 5.0928125 -1.175625 5.0928125 -2.375 5.1875 C-3.24125 5.125625 -4.1075 5.06375 -5 5 C-5.66 4.01 -6.32 3.02 -7 2 C-4.69 2 -2.38 2 0 2 C0 1.34 0 0.68 0 0 Z " fill="#E9F7F5" transform="translate(14,40)"/>
<path d="M0 0 C1.98 0 3.96 0 6 0 C6.33 0.99 6.66 1.98 7 3 C2.05 3 -2.9 3 -8 3 C-8 2.67 -8 2.34 -8 2 C-5.36 2 -2.72 2 0 2 C0 1.34 0 0.68 0 0 Z " fill="#F0FAF8" transform="translate(85,59)"/>
<path d="M0 0 C5.94 0 11.88 0 18 0 C18 0.33 18 0.66 18 1 C15.03 1 12.06 1 9 1 C9 1.66 9 2.32 9 3 C7.68 3 6.36 3 5 3 C5 2.34 5 1.68 5 1 C3.35 1 1.7 1 0 1 C0 0.67 0 0.34 0 0 Z " fill="#EEF9F7" transform="translate(79,63)"/>
</svg>
